<svg xmlns="http://www.w3.org/2000/svg" width="1600" height="980" viewBox="0 0 1600 980" font-family="Segoe UI,Inter,system-ui,-apple-system,sans-serif"><defs><marker id="ah-green" viewBox="0 0 10 10" refX="8.5" refY="5" markerWidth="7" markerHeight="7" orient="auto-start-reverse"><path d="M0,1.2 L9,5 L0,8.8 z" fill="#2f9e6e"/></marker><marker id="ah-pink" viewBox="0 0 10 10" refX="8.5" refY="5" markerWidth="7" markerHeight="7" orient="auto-start-reverse"><path d="M0,1.2 L9,5 L0,8.8 z" fill="#e05561"/></marker><marker id="ah-blue" viewBox="0 0 10 10" refX="8.5" refY="5" markerWidth="7" markerHeight="7" orient="auto-start-reverse"><path d="M0,1.2 L9,5 L0,8.8 z" fill="#4285f4"/></marker><marker id="ah-purple" viewBox="0 0 10 10" refX="8.5" refY="5" markerWidth="7" markerHeight="7" orient="auto-start-reverse"><path d="M0,1.2 L9,5 L0,8.8 z" fill="#8b5cf6"/></marker><marker id="ah-amber" viewBox="0 0 10 10" refX="8.5" refY="5" markerWidth="7" markerHeight="7" orient="auto-start-reverse"><path d="M0,1.2 L9,5 L0,8.8 z" fill="#e0a13a"/></marker><marker id="ah-cyan" viewBox="0 0 10 10" refX="8.5" refY="5" markerWidth="7" markerHeight="7" orient="auto-start-reverse"><path d="M0,1.2 L9,5 L0,8.8 z" fill="#2aa5b0"/></marker><marker id="ah-slate" viewBox="0 0 10 10" refX="8.5" refY="5" markerWidth="7" markerHeight="7" orient="auto-start-reverse"><path d="M0,1.2 L9,5 L0,8.8 z" fill="#8494ab"/></marker><marker id="ah-white" viewBox="0 0 10 10" refX="8.5" refY="5" markerWidth="7" markerHeight="7" orient="auto-start-reverse"><path d="M0,1.2 L9,5 L0,8.8 z" fill="#c9d3e2"/></marker><filter id="sh" x="-20%" y="-20%" width="140%" height="150%"><feDropShadow dx="0" dy="2" stdDeviation="3" flood-color="#1b2a4a" flood-opacity="0.10"/></filter></defs><rect width="1600" height="980" fill="#fbfcfe"/><text x="800.0" y="52" text-anchor="middle" font-size="27" font-weight="700" fill="#16203a">AI Incident Commander - the model proposes, deterministic Go disposes</text><text x="800.0" y="80" text-anchor="middle" font-size="14.5" fill="#6b7794">The model sits in exactly one step; everything it emits is validated and risk-gated before it can touch the world.</text><rect x="48" y="150" width="300" height="272" rx="18" fill="#ffffff" fill-opacity="0.55" stroke="#8494ab" stroke-width="1.5" stroke-dasharray="7 5" stroke-opacity="0.75"/><text x="66" y="141" font-size="13.5" font-weight="700" letter-spacing="0.4" fill="#3d4a63">SOURCES</text><rect x="68" y="196" width="260" height="87" rx="14" fill="#ddf3f5" stroke="#2aa5b0" stroke-width="1.8" filter="url(#sh)"/><g transform="translate(84,211) scale(0.8750)" fill="none" stroke="#2aa5b0" stroke-width="2.0" stroke-linecap="round" stroke-linejoin="round"><path d="M12 3l9 16H3z"/><path d="M12 9v5"/><path d="M12 17.2v.1"/></g><text x="114" y="227" font-size="16.5" font-weight="700" fill="#136b74">Alert</text><text x="85" y="249.0" font-size="12.3" fill="#6b7794" font-family="Segoe UI,Inter,system-ui,-apple-system,sans-serif">POST /incidents {scenario}</text><text x="85" y="266.8" font-size="12.3" fill="#6b7794" font-family="Segoe UI,Inter,system-ui,-apple-system,sans-serif">service . metric . value</text><rect x="68" y="306" width="260" height="87" rx="14" fill="#ddf3f5" stroke="#2aa5b0" stroke-width="1.8" filter="url(#sh)"/><g transform="translate(84,321) scale(0.8750)" fill="none" stroke="#2aa5b0" stroke-width="2.0" stroke-linecap="round" stroke-linejoin="round"><path d="M7 18h10a4 4 0 0 0 .6-8 6 6 0 0 0-11.4 1.7A3.6 3.6 0 0 0 7 18z"/></g><text x="114" y="337" font-size="16.5" font-weight="700" fill="#136b74">Simulator env</text><text x="85" y="359.0" font-size="12.3" fill="#6b7794" font-family="Segoe UI,Inter,system-ui,-apple-system,sans-serif">10 reproducible scenarios</text><text x="85" y="376.8" font-size="12.3" fill="#6b7794" font-family="Segoe UI,Inter,system-ui,-apple-system,sans-serif">deterministic metrics</text><rect x="392" y="150" width="486" height="364" rx="18" fill="#ffffff" fill-opacity="0.55" stroke="#4285f4" stroke-width="1.5" stroke-dasharray="7 5" stroke-opacity="0.75"/><text x="410" y="141" font-size="13.5" font-weight="700" letter-spacing="0.4" fill="#17509f">DETERMINISTIC CORE - GO OWNS THE SPINE</text><rect x="414" y="186" width="442" height="87" rx="14" fill="#e2ecfd" stroke="#4285f4" stroke-width="1.8" filter="url(#sh)"/><g transform="translate(430,201) scale(0.8750)" fill="none" stroke="#4285f4" stroke-width="2.0" stroke-linecap="round" stroke-linejoin="round"><circle cx="6" cy="5" r="2.5"/><circle cx="6" cy="19" r="2.5"/><circle cx="18" cy="9" r="2.5"/><path d="M6 7.5v9"/><path d="M18 11.5c0 4-4 3.5-12 3.5"/></g><text x="460" y="217" font-size="16.5" font-weight="700" fill="#17509f">Incident state machine</text><text x="431" y="239.0" font-size="12.3" fill="#6b7794" font-family="Segoe UI,Inter,system-ui,-apple-system,sans-serif">NEW -&gt; ... -&gt; RESOLVED (+ failures)</text><text x="431" y="256.8" font-size="12.3" fill="#6b7794" font-family="Segoe UI,Inter,system-ui,-apple-system,sans-serif">legal-transition table; model never sets it</text><rect x="414" y="298" width="442" height="87" rx="14" fill="#e2ecfd" stroke="#4285f4" stroke-width="1.8" filter="url(#sh)"/><g transform="translate(430,313) scale(0.8750)" fill="none" stroke="#4285f4" stroke-width="2.0" stroke-linecap="round" stroke-linejoin="round"><circle cx="9" cy="8" r="3.4"/><path d="M2 20c0-3.9 3.1-6.4 7-6.4s7 2.5 7 6.4"/><path d="M16 5.2A3.4 3.4 0 0 1 16 11"/><path d="M18 13.9c2.4.6 4 2.5 4 5.1"/></g><text x="460" y="329" font-size="16.5" font-weight="700" fill="#17509f">Evidence collection</text><text x="431" y="351.0" font-size="12.3" fill="#6b7794" font-family="Segoe UI,Inter,system-ui,-apple-system,sans-serif">concurrent worker pool; ctx cancel</text><text x="431" y="368.8" font-size="12.3" fill="#6b7794" font-family="Segoe UI,Inter,system-ui,-apple-system,sans-serif">aggregated deterministically</text><rect x="414" y="410" width="442" height="87" rx="14" fill="#e2ecfd" stroke="#4285f4" stroke-width="1.8" filter="url(#sh)"/><g transform="translate(430,425) scale(0.8750)" fill="none" stroke="#4285f4" stroke-width="2.0" stroke-linecap="round" stroke-linejoin="round"><circle cx="12" cy="12" r="3.2"/><path d="M12 2v3M12 19v3M2 12h3M19 12h3M4.9 4.9l2.1 2.1M17 17l2.1 2.1M19.1 4.9L17 7M7 17l-2.1 2.1"/></g><text x="460" y="441" font-size="16.5" font-weight="700" fill="#17509f">Tools</text><text x="431" y="463.0" font-size="12.3" fill="#6b7794" font-family="Segoe UI,Inter,system-ui,-apple-system,sans-serif">investigate + remediate; audited</text><text x="431" y="480.8" font-size="12.3" fill="#6b7794" font-family="Segoe UI,Inter,system-ui,-apple-system,sans-serif">each declares low / medium / high</text><rect x="946" y="250" width="250" height="118" rx="14" fill="#eef1f6" stroke="#8494ab" stroke-width="1.8" filter="url(#sh)"/><g transform="translate(1059.0,264) scale(1.0000)" fill="none" stroke="#8494ab" stroke-width="2.0" stroke-linecap="round" stroke-linejoin="round"><path d="M6 3v5a5 5 0 0 0 5 5h7"/><path d="M6 21v-5a5 5 0 0 1 5-5"/><path d="M15 10l3 3-3 3"/></g><text x="1071.0" y="308" text-anchor="middle" font-size="16.5" font-weight="700" fill="#3d4a63">Evidence bundle</text><text x="1071.0" y="329.0" text-anchor="middle" font-size="12.3" fill="#6b7794" font-family="Segoe UI,Inter,system-ui,-apple-system,sans-serif">alert + collected evidence</text><text x="1071.0" y="346.8" text-anchor="middle" font-size="12.3" fill="#6b7794" font-family="Segoe UI,Inter,system-ui,-apple-system,sans-serif">the model's only input</text><rect x="1300" y="150" width="252" height="582" rx="18" fill="#ffffff" fill-opacity="0.55" stroke="#8494ab" stroke-width="1.5" stroke-dasharray="7 5" stroke-opacity="0.75"/><text x="1318" y="141" font-size="13.5" font-weight="700" letter-spacing="0.4" fill="#3d4a63">APPROVE . EXECUTE . REPORT</text><rect x="1320" y="196" width="212" height="104" rx="14" fill="#fdf1d6" stroke="#e0a13a" stroke-width="1.8" filter="url(#sh)"/><g transform="translate(1336,211) scale(0.8750)" fill="none" stroke="#e0a13a" stroke-width="2.0" stroke-linecap="round" stroke-linejoin="round"><circle cx="12" cy="8" r="4"/><path d="M4 21c0-4.4 3.6-7 8-7s8 2.6 8 7"/></g><text x="1366" y="227" font-size="16.5" font-weight="700" fill="#8c5a0d">Human approval</text><text x="1337" y="249.0" font-size="12.3" fill="#6b7794" font-family="Segoe UI,Inter,system-ui,-apple-system,sans-serif">WAITING_FOR_APPROVAL</text><text x="1337" y="266.8" font-size="12.3" fill="#6b7794" font-family="Segoe UI,Inter,system-ui,-apple-system,sans-serif">HIGH never auto-runs</text><text x="1337" y="284.6" font-size="12.3" fill="#6b7794" font-family="Segoe UI,Inter,system-ui,-apple-system,sans-serif">only the approve route</text><rect x="1320" y="356" width="212" height="104" rx="14" fill="#e2ecfd" stroke="#4285f4" stroke-width="1.8" filter="url(#sh)"/><g transform="translate(1336,371) scale(0.8750)" fill="none" stroke="#4285f4" stroke-width="2.0" stroke-linecap="round" stroke-linejoin="round"><circle cx="12" cy="12" r="3.2"/><path d="M12 2v3M12 19v3M2 12h3M19 12h3M4.9 4.9l2.1 2.1M17 17l2.1 2.1M19.1 4.9L17 7M7 17l-2.1 2.1"/></g><text x="1366" y="387" font-size="16.5" font-weight="700" fill="#17509f">Remediate</text><text x="1337" y="409.0" font-size="12.3" fill="#6b7794" font-family="Segoe UI,Inter,system-ui,-apple-system,sans-serif">run on the simulator</text><text x="1337" y="426.8" font-size="12.3" fill="#6b7794" font-family="Segoe UI,Inter,system-ui,-apple-system,sans-serif">verify metrics recovered</text><text x="1337" y="444.6" font-size="12.3" fill="#6b7794" font-family="Segoe UI,Inter,system-ui,-apple-system,sans-serif">else VERIFICATION_FAILED</text><rect x="1320" y="512" width="212" height="96" rx="14" fill="#e3f5ec" stroke="#2f9e6e" stroke-width="1.8" filter="url(#sh)"/><g transform="translate(1336,527) scale(0.8750)" fill="none" stroke="#2f9e6e" stroke-width="2.0" stroke-linecap="round" stroke-linejoin="round"><path d="M14 3H7a2 2 0 0 0-2 2v14a2 2 0 0 0 2 2h10a2 2 0 0 0 2-2V8z"/><path d="M14 3v5h5"/><path d="M9 13h6"/><path d="M9 17h4"/></g><text x="1366" y="543" font-size="16.5" font-weight="700" fill="#186547">Report</text><text x="1337" y="565.0" font-size="12.3" fill="#6b7794" font-family="Segoe UI,Inter,system-ui,-apple-system,sans-serif">evidence-backed</text><text x="1337" y="582.8" font-size="12.3" fill="#6b7794" font-family="Segoe UI,Inter,system-ui,-apple-system,sans-serif">full transition history</text><rect x="392" y="556" width="250" height="176" rx="14" fill="#ece5f9" stroke="#8b5cf6" stroke-width="1.8" filter="url(#sh)"/><g transform="translate(505.0,570) scale(1.0000)" fill="none" stroke="#8b5cf6" stroke-width="2.0" stroke-linecap="round" stroke-linejoin="round"><path d="M12 3l2.2 5.6L20 11l-5.8 2.4L12 19l-2.2-5.6L4 11l5.8-2.4z"/></g><text x="517.0" y="614" text-anchor="middle" font-size="16.5" font-weight="700" fill="#552fae">LLM investigator</text><text x="517.0" y="635.0" text-anchor="middle" font-size="12.3" fill="#6b7794" font-family="Segoe UI,Inter,system-ui,-apple-system,sans-serif">the single model step</text><text x="517.0" y="652.8" text-anchor="middle" font-size="12.3" fill="#6b7794" font-family="Segoe UI,Inter,system-ui,-apple-system,sans-serif">proposes a diagnosis (JSON)</text><text x="517.0" y="670.6" text-anchor="middle" font-size="12.3" fill="#6b7794" font-family="Segoe UI,Inter,system-ui,-apple-system,sans-serif">root cause + hypotheses</text><text x="517.0" y="688.4" text-anchor="middle" font-size="12.3" fill="#6b7794" font-family="Segoe UI,Inter,system-ui,-apple-system,sans-serif">never sets state / executes</text><rect x="700" y="556" width="236" height="176" rx="14" fill="#fde5e7" stroke="#e05561" stroke-width="1.8" filter="url(#sh)"/><g transform="translate(806.0,570) scale(1.0000)" fill="none" stroke="#e05561" stroke-width="2.0" stroke-linecap="round" stroke-linejoin="round"><circle cx="12" cy="12" r="9"/><path d="M8 12.5l2.6 2.6L16 9.6"/></g><text x="818.0" y="614" text-anchor="middle" font-size="16.5" font-weight="700" fill="#9e2b36">Validate</text><text x="818.0" y="635.0" text-anchor="middle" font-size="12.3" fill="#6b7794" font-family="Segoe UI,Inter,system-ui,-apple-system,sans-serif">real tool? real service?</text><text x="818.0" y="652.8" text-anchor="middle" font-size="12.3" fill="#6b7794" font-family="Segoe UI,Inter,system-ui,-apple-system,sans-serif">cited evidence exists?</text><text x="818.0" y="670.6" text-anchor="middle" font-size="12.3" fill="#6b7794" font-family="Segoe UI,Inter,system-ui,-apple-system,sans-serif">confidence in [0,1]?</text><text x="818.0" y="688.4" text-anchor="middle" font-size="12.3" fill="#6b7794" font-family="Segoe UI,Inter,system-ui,-apple-system,sans-serif">bad output -&gt; human</text><rect x="994" y="556" width="250" height="176" rx="14" fill="#fdf1d6" stroke="#e0a13a" stroke-width="1.8" filter="url(#sh)"/><g transform="translate(1107.0,570) scale(1.0000)" fill="none" stroke="#e0a13a" stroke-width="2.0" stroke-linecap="round" stroke-linejoin="round"><path d="M12 4v16"/><path d="M6 8h12"/><path d="M4 18h6l-3-7z"/><path d="M14 18h6l-3-7z"/></g><text x="1119.0" y="614" text-anchor="middle" font-size="16.5" font-weight="700" fill="#8c5a0d">Risk gate</text><text x="1119.0" y="635.0" text-anchor="middle" font-size="12.3" fill="#6b7794" font-family="Segoe UI,Inter,system-ui,-apple-system,sans-serif">low: auto</text><text x="1119.0" y="652.8" text-anchor="middle" font-size="12.3" fill="#6b7794" font-family="Segoe UI,Inter,system-ui,-apple-system,sans-serif">medium: if enabled</text><text x="1119.0" y="670.6" text-anchor="middle" font-size="12.3" fill="#6b7794" font-family="Segoe UI,Inter,system-ui,-apple-system,sans-serif">high: never auto</text><text x="1119.0" y="688.4" text-anchor="middle" font-size="12.3" fill="#6b7794" font-family="Segoe UI,Inter,system-ui,-apple-system,sans-serif">the tool's declared level</text><path d="M348,239 L412,229" stroke="#2aa5b0" stroke-width="2.0" fill="none" marker-end="url(#ah-cyan)"/><rect x="355.6" y="222.0" width="48.8" height="24.0" rx="12" fill="#ffffff" stroke="#2aa5b0" stroke-opacity="0.4"/><text x="380.0" y="238.44" text-anchor="middle" font-size="12" font-weight="600" fill="#136b74">open</text><path d="M348,349 L412,341" stroke="#2aa5b0" stroke-width="2.0" fill="none" marker-end="url(#ah-cyan)"/><rect x="359.2" y="333.0" width="41.599999999999994" height="24.0" rx="12" fill="#ffffff" stroke="#2aa5b0" stroke-opacity="0.4"/><text x="380.0" y="349.44" text-anchor="middle" font-size="12" font-weight="600" fill="#136b74">env</text><path d="M635,273 L635,298" stroke="#4285f4" stroke-width="2.0" fill="none" marker-end="url(#ah-blue)"/><path d="M635,410 L635,385" stroke="#4285f4" stroke-width="2.0" fill="none" marker-end="url(#ah-blue)"/><rect x="602.824" y="385.5" width="64.352" height="24.0" rx="12" fill="#ffffff" stroke="#4285f4" stroke-opacity="0.4"/><text x="635.0" y="401.94" text-anchor="middle" font-size="12" font-weight="600" fill="#17509f">results</text><path d="M856,341 L946,320" stroke="#4285f4" stroke-width="2.0" fill="none" marker-end="url(#ah-blue)"/><rect x="863.712" y="318.5" width="74.576" height="24.0" rx="12" fill="#ffffff" stroke="#4285f4" stroke-opacity="0.4"/><text x="901.0" y="334.94" text-anchor="middle" font-size="12" font-weight="600" fill="#17509f">evidence</text><path d="M1071,368 L1071.0,513.0 Q1071,528 1056.0,528.0 L531.0,528.0 Q517,528 517.0,542.0 L517,556" stroke="#8494ab" stroke-width="2.0" fill="none" marker-end="url(#ah-slate)"/><rect x="752.5360000000001" y="516.0" width="82.928" height="24.0" rx="12" fill="#ffffff" stroke="#8494ab" stroke-opacity="0.4"/><text x="794" y="532.44" text-anchor="middle" font-size="12" font-weight="600" fill="#3d4a63">the bundle</text><path d="M642,644 L700,644" stroke="#8b5cf6" stroke-width="2.0" fill="none" marker-end="url(#ah-purple)"/><rect x="631.624" y="632.0" width="78.752" height="24.0" rx="12" fill="#ffffff" stroke="#8b5cf6" stroke-opacity="0.4"/><text x="671.0" y="648.44" text-anchor="middle" font-size="12" font-weight="600" fill="#552fae">diagnosis</text><path d="M936,644 L994,644" stroke="#e05561" stroke-width="2.0" fill="none" marker-end="url(#ah-pink)"/><rect x="940.024" y="632.0" width="49.952" height="24.0" rx="12" fill="#ffffff" stroke="#e05561" stroke-opacity="0.4"/><text x="965.0" y="648.44" text-anchor="middle" font-size="12" font-weight="600" fill="#9e2b36">valid</text><path d="M1150,556 L1150.0,455.0 Q1150,440 1165.0,440.0 L1205.0,440.0 Q1220,440 1220.0,425.0 L1220.0,259.0 Q1220,244 1235.0,244.0 L1320,244" stroke="#e0a13a" stroke-width="2.0" fill="none" marker-end="url(#ah-amber)"/><rect x="1096.224" y="463.0" width="107.552" height="24.0" rx="12" fill="#ffffff" stroke="#e0a13a" stroke-opacity="0.4"/><text x="1150" y="479.44" text-anchor="middle" font-size="12" font-weight="600" fill="#8c5a0d">needs a human</text><path d="M1240,556 L1240.0,419.0 Q1240,404 1255.0,404.0 L1320,404" stroke="#2f9e6e" stroke-width="2.0" fill="none" marker-end="url(#ah-green)"/><rect x="1217.112" y="488.0" width="45.775999999999996" height="24.0" rx="12" fill="#ffffff" stroke="#2f9e6e" stroke-opacity="0.4"/><text x="1240" y="504.44" text-anchor="middle" font-size="12" font-weight="600" fill="#186547">auto</text><path d="M1426,292 L1426,356" stroke="#4285f4" stroke-width="2.0" fill="none" marker-end="url(#ah-blue)"/><rect x="1387.2" y="312.0" width="77.6" height="24.0" rx="12" fill="#ffffff" stroke="#4285f4" stroke-opacity="0.4"/><text x="1426.0" y="328.44" text-anchor="middle" font-size="12" font-weight="600" fill="#17509f">approved</text><path d="M1426,452 L1426,512" stroke="#2f9e6e" stroke-width="2.0" fill="none" marker-end="url(#ah-green)"/><rect x="1388.712" y="470.0" width="74.576" height="24.0" rx="12" fill="#ffffff" stroke="#2f9e6e" stroke-opacity="0.4"/><text x="1426.0" y="486.44" text-anchor="middle" font-size="12" font-weight="600" fill="#186547">resolved</text><rect x="48" y="792" width="726" height="95.19999999999999" rx="11" fill="#fdf1d6" stroke="#e0a13a" stroke-width="1.4" stroke-opacity="0.8"/><text x="64" y="816" font-size="13.2" font-weight="700" fill="#8c5a0d">The model proposes; deterministic code disposes</text><text x="64" y="838" font-size="12.4" fill="#8c5a0d" fill-opacity="0.92">The model proposes one thing - a diagnosis. Everything it emits is hard-</text><text x="64" y="856.4" font-size="12.4" fill="#8c5a0d" fill-opacity="0.92">validated (real tool? cited evidence? confidence in range?) and pushed through</text><text x="64" y="874.8" font-size="12.4" fill="#8c5a0d" fill-opacity="0.92">the risk gate; bad output fails safe to a human, and HIGH never runs on its own.</text><rect x="820" y="792" width="732" height="95.19999999999999" rx="11" fill="#e3f5ec" stroke="#2f9e6e" stroke-width="1.4" stroke-opacity="0.8"/><text x="836" y="816" font-size="13.2" font-weight="700" fill="#186547">One deterministic core, six languages</text><text x="836" y="838" font-size="12.4" fill="#186547" fill-opacity="0.92">models . statemachine . policy . eval . metrics ported to Python, Rust, C#,</text><text x="836" y="856.4" font-size="12.4" fill="#186547" fill-opacity="0.92">Java, TypeScript - byte-identical (round-half-to-even %.0f, ordinal sort).</text><text x="836" y="874.8" font-size="12.4" fill="#186547" fill-opacity="0.92">Agent, tools, HTTP + MCP, simulator and storage stay in Go.</text><text x="800.0" y="962" text-anchor="middle" font-size="12" fill="#6b7794">parag-labs/incident-commander</text></svg>